<svg width="32" height="32" viewBox="0 0 32 32" fill="none" xmlns="http://www.w3.org/2000/svg">
<g clip-path="url(#clip0_289_615)">
<path d="M32.1109 15.2909H17.2905C17.0552 15.2909 17.0552 15.1733 17.0552 15.0557V0.352867C17.0552 0.117622 17.1729 0 17.2905 0H17.6434L18.1138 0.235245C19.8782 7.17496 25.2888 12.468 32.2285 14.3499C32.4638 14.3499 32.4638 14.4675 32.4638 14.5852V15.0557C32.4638 15.2909 32.3461 15.2909 32.1109 15.2909Z" fill="white"/>
<path d="M17.8786 32.4638H17.4081C17.1729 32.4638 17.1729 32.3461 17.1729 32.1109V17.4081L17.4081 17.0552H32.1109C32.3461 17.0552 32.4638 17.2905 32.4638 17.4081V17.761L32.2285 18.1138C25.2888 19.8782 19.9958 25.2888 18.1138 32.2285L17.8786 32.4638Z" fill="white"/>
<path d="M15.0557 32.4638H14.7028L14.3499 32.2285C12.5856 25.2888 7.17496 19.8782 0.235245 18.1138C0 18.1138 0 17.9962 0 17.8786V17.4081C0 17.2905 0.117622 17.0552 0.352867 17.0552H15.0557C15.2909 17.0552 15.2909 17.2905 15.2909 17.4081V32.1109C15.2909 32.3461 15.1733 32.4638 15.0557 32.4638Z" fill="white"/>
<path d="M15.0557 15.2909H0.352867C0.117622 15.2909 0 15.1733 0 15.0557V14.7028L0.235245 14.3499C7.05734 12.5856 12.468 7.05734 14.3499 0.235245C14.3499 0 14.4675 0 14.5852 0H15.0557C15.2909 0 15.2909 0.117622 15.2909 0.352867V15.0557C15.2909 15.2909 15.1733 15.2909 15.0557 15.2909Z" fill="white"/>
</g>
<defs>
<clipPath id="clip0_289_615">
<rect width="32" height="32" fill="white"/>
</clipPath>
</defs>
</svg>
