<svg width="1405" height="195" viewBox="0 0 1405 195" fill="none" xmlns="http://www.w3.org/2000/svg">
<path d="M68.193 75.4333C67.4926 76.5228 66.7604 77.3239 65.9963 77.8366C65.2959 78.2852 64.309 78.5095 63.0356 78.5095C61.7621 78.5095 60.4568 78.1891 59.1197 77.5482C57.7826 76.9073 56.2863 76.2344 54.6308 75.5294C52.9753 74.7603 51.0652 74.0554 48.9003 73.4145C46.7991 72.7736 44.3478 72.4532 41.5462 72.4532C37.2801 72.4532 33.9692 73.3504 31.6133 75.1449C29.2574 76.8753 28.0795 79.1824 28.0795 82.0664C28.0795 84.0532 28.748 85.7195 30.0852 87.0653C31.4223 88.4112 33.1733 89.5968 35.3381 90.6222C37.5667 91.5835 40.0817 92.5128 42.8833 93.4101C45.6849 94.2432 48.5501 95.1725 51.4791 96.1979C54.4717 97.2233 57.3687 98.409 60.1703 99.7548C62.9719 101.101 65.4551 102.799 67.62 104.85C69.8485 106.837 71.6313 109.272 72.9685 112.156C74.3056 114.976 74.9741 118.405 74.9741 122.442C74.9741 127.249 74.0827 131.703 72.2999 135.805C70.5807 139.842 68.0338 143.335 64.6592 146.283C61.2846 149.231 57.0822 151.538 52.0521 153.205C47.022 154.871 41.2278 155.704 34.6696 155.704C31.2949 155.704 27.9521 155.384 24.6412 154.743C21.3302 154.166 18.1784 153.333 15.1858 152.243C12.1932 151.09 9.39166 149.776 6.7811 148.302C4.17054 146.828 1.91017 145.226 0 143.495L6.11254 133.593C6.81294 132.44 7.67251 131.543 8.69127 130.902C9.7737 130.261 11.1427 129.94 12.7981 129.94C14.3899 129.94 15.8544 130.357 17.1915 131.19C18.5286 131.959 20.0249 132.824 21.6804 133.786C23.3359 134.683 25.2779 135.548 27.5064 136.381C29.7986 137.15 32.6321 137.535 36.0067 137.535C38.5536 137.535 40.7503 137.247 42.5968 136.67C44.4433 136.093 45.9396 135.324 47.0857 134.363C48.2318 133.337 49.0595 132.216 49.5689 130.998C50.1419 129.716 50.4285 128.402 50.4285 127.056C50.4285 124.877 49.7281 123.115 48.3273 121.769C46.9902 120.359 45.2073 119.142 42.9788 118.116C40.8139 117.091 38.2989 116.161 35.4336 115.328C32.5684 114.495 29.6395 113.566 26.6469 112.54C23.7179 111.515 20.8208 110.297 17.9556 108.887C15.154 107.477 12.639 105.715 10.4104 103.6C8.24556 101.421 6.46274 98.7614 5.06195 95.6211C3.72483 92.4808 3.05627 88.6675 3.05627 84.1813C3.05627 80.0797 3.85217 76.2023 5.44398 72.5493C7.03579 68.8322 9.4235 65.5636 12.6071 62.7438C15.7907 59.9239 19.7384 57.6808 24.4502 56.0145C29.2256 54.3482 34.7332 53.515 40.9731 53.515C47.9771 53.515 54.3443 54.6686 60.0748 56.9758C65.8053 59.283 70.5171 62.2951 74.2101 66.0123L68.193 75.4333Z" fill="black"/>
<path d="M117.835 10.8324V92.1606H122.228C123.884 92.1606 125.189 91.9363 126.144 91.4877C127.099 90.975 128.054 90.0777 129.009 88.796L150.785 59.5716C151.868 58.0976 153.078 56.9761 154.415 56.207C155.815 55.4379 157.566 55.0534 159.668 55.0534H183.736L155.465 91.1993C153.237 94.2114 150.658 96.5827 147.729 98.3131C149.194 99.3385 150.467 100.524 151.549 101.87C152.632 103.216 153.682 104.722 154.701 106.388L185.169 154.166H161.482C159.445 154.166 157.694 153.846 156.229 153.205C154.765 152.5 153.555 151.282 152.6 149.552L130.442 113.118C129.551 111.579 128.627 110.586 127.672 110.137C126.717 109.689 125.285 109.464 123.374 109.464H117.835V154.166H91.4746V10.8324H117.835Z" fill="black"/>
<path d="M240.163 53.5149C247.549 53.5149 254.266 54.7005 260.315 57.0718C266.364 59.4431 271.553 62.8398 275.883 67.2619C280.213 71.6199 283.556 76.9392 285.912 83.2199C288.267 89.5005 289.445 96.5823 289.445 104.465C289.445 112.348 288.267 119.462 285.912 125.807C283.556 132.087 280.213 137.439 275.883 141.861C271.553 146.283 266.364 149.68 260.315 152.051C254.266 154.422 247.549 155.608 240.163 155.608C232.713 155.608 225.932 154.422 219.82 152.051C213.771 149.68 208.582 146.283 204.252 141.861C199.922 137.439 196.548 132.087 194.128 125.807C191.772 119.462 190.594 112.348 190.594 104.465C190.594 96.5823 191.772 89.5005 194.128 83.2199C196.548 76.9392 199.922 71.6199 204.252 67.2619C208.582 62.8398 213.771 59.4431 219.82 57.0718C225.932 54.7005 232.713 53.5149 240.163 53.5149ZM240.163 135.708C247.676 135.708 253.248 133.113 256.877 127.922C260.506 122.666 262.321 114.88 262.321 104.561C262.321 94.3072 260.506 86.5845 256.877 81.3933C253.248 76.1381 247.676 73.5105 240.163 73.5105C232.459 73.5105 226.792 76.1381 223.163 81.3933C219.533 86.5845 217.719 94.3072 217.719 104.561C217.719 114.88 219.533 122.666 223.163 127.922C226.792 133.113 232.459 135.708 240.163 135.708Z" fill="black"/>
<path d="M350.408 53.5149C357.794 53.5149 364.512 54.7005 370.56 57.0718C376.609 59.4431 381.799 62.8398 386.128 67.2619C390.458 71.6199 393.801 76.9392 396.157 83.2199C398.513 89.5005 399.69 96.5823 399.69 104.465C399.69 112.348 398.513 119.462 396.157 125.807C393.801 132.087 390.458 137.439 386.128 141.861C381.799 146.283 376.609 149.68 370.56 152.051C364.512 154.422 357.794 155.608 350.408 155.608C342.958 155.608 336.177 154.422 330.065 152.051C324.016 149.68 318.827 146.283 314.497 141.861C310.167 137.439 306.793 132.087 304.373 125.807C302.017 119.462 300.839 112.348 300.839 104.465C300.839 96.5823 302.017 89.5005 304.373 83.2199C306.793 76.9392 310.167 71.6199 314.497 67.2619C318.827 62.8398 324.016 59.4431 330.065 57.0718C336.177 54.7005 342.958 53.5149 350.408 53.5149ZM350.408 135.708C357.921 135.708 363.493 133.113 367.122 127.922C370.751 122.666 372.566 114.88 372.566 104.561C372.566 94.3072 370.751 86.5845 367.122 81.3933C363.493 76.1381 357.921 73.5105 350.408 73.5105C342.704 73.5105 337.037 76.1381 333.408 81.3933C329.778 86.5845 327.964 94.3072 327.964 104.561C327.964 114.88 329.778 122.666 333.408 127.922C337.037 133.113 342.704 135.708 350.408 135.708Z" fill="black"/>
<path d="M442.792 10.832V154.166H416.432V10.832H442.792Z" fill="black"/>
<path d="M499.791 154.517V10.129H523.425V144.785L512.005 132.273H583.603V154.517H499.791Z" fill="black"/>
<path d="M621.19 155.708C614.57 155.708 608.711 154.484 603.613 152.034C598.516 149.518 594.51 146.043 591.597 141.607C588.751 137.172 587.327 132.041 587.327 126.215C587.327 119.793 588.486 114.497 590.803 110.327C593.12 106.156 596.463 102.846 600.833 100.396C605.268 97.8804 610.465 95.9606 616.423 94.6365C620.66 93.7097 625.129 92.9484 629.829 92.3525C634.596 91.7567 638.998 91.2933 643.037 90.9623C647.075 90.5651 650.187 90.3003 652.371 90.1678V85.7985C652.371 78.45 650.882 72.9552 647.903 69.314C644.99 65.6067 640.025 63.753 633.007 63.753C628.505 63.753 624.732 64.3158 621.686 65.4412C618.641 66.5004 616.324 68.5527 614.735 71.598C613.213 74.5772 612.385 78.9465 612.253 84.7061H590.902C590.174 75.3716 591.498 67.7252 594.874 61.767C598.317 55.7425 603.415 51.307 610.167 48.4603C616.986 45.5473 625.03 44.0909 634.298 44.0909C639.793 44.0909 644.957 44.7198 649.789 45.9777C654.688 47.1693 659.025 49.2547 662.798 52.2338C666.572 55.1467 669.551 59.152 671.736 64.2496C673.92 69.3472 675.013 75.8019 675.013 83.6138V154.517H652.073L652.371 130.187C651.113 137.536 647.936 143.626 642.838 148.459C637.741 153.292 630.524 155.708 621.19 155.708ZM627.446 138.032C630.889 138.032 634.364 137.436 637.873 136.245C641.448 135.053 644.559 133.332 647.208 131.081C649.922 128.83 651.643 126.182 652.371 123.137V103.276C649.723 103.541 646.579 104.004 642.937 104.666C639.363 105.328 636.284 105.924 633.702 106.454C626.287 107.976 620.925 109.996 617.615 112.511C614.371 114.961 612.749 118.734 612.749 123.832C612.749 126.745 613.411 129.294 614.735 131.478C616.125 133.597 617.946 135.219 620.197 136.344C622.448 137.47 624.864 138.032 627.446 138.032Z" fill="black"/>
<path d="M722.573 156.701C713.172 156.701 705.625 153.424 699.932 146.87C694.238 140.316 691.391 130.916 691.391 118.668V46.077H714.827V112.412C714.827 117.708 715.423 122.077 716.615 125.52C717.806 128.963 719.693 131.478 722.275 133.067C724.857 134.656 728.2 135.45 732.305 135.45C737.27 135.45 741.738 134.027 745.711 131.18C749.749 128.267 752.596 124.99 754.251 121.349V46.077H777.686V154.517H757.726L755.045 113.604L756.833 121.846C756.038 127.804 754.449 133.431 752.066 138.727C749.749 144.024 746.207 148.36 741.441 151.736C736.74 155.046 730.451 156.701 722.573 156.701Z" fill="black"/>
<path d="M797.274 154.517V46.1763H817.333L819.915 86.9901L818.227 78.7479C819.022 72.7897 820.577 67.1625 822.895 61.8663C825.278 56.5039 828.82 52.1676 833.52 48.8575C838.22 45.5473 844.51 43.8923 852.388 43.8923C862.649 43.8923 870.593 47.1031 876.221 53.5247C881.848 59.8802 884.661 69.612 884.661 82.7201V154.517H861.226V90.863C861.226 84.6399 860.597 79.6416 859.339 75.8681C858.147 72.0946 856.194 69.3803 853.48 67.7252C850.766 66.0039 847.158 65.1433 842.656 65.1433C837.757 65.1433 833.288 66.5997 829.25 69.5127C825.278 72.3594 822.431 75.6033 820.71 79.2444V154.517H797.274Z" fill="black"/>
<path d="M947.901 156.403C937.176 156.403 927.974 154.053 920.294 149.353C912.615 144.586 906.723 137.966 902.618 129.492C898.58 121.018 896.561 111.187 896.561 99.9989C896.561 88.2149 898.646 78.1521 902.817 69.8106C906.988 61.4691 912.781 55.1136 920.195 50.7442C927.61 46.3087 936.15 44.0909 945.816 44.0909C955.415 44.0909 963.459 45.8784 969.946 49.4533C976.5 52.962 981.399 57.6955 984.643 63.6537C987.887 69.5458 989.377 76.1329 989.112 83.4152H966.57C966.504 80.5023 966.04 77.8542 965.18 75.4709C964.319 73.0214 963.028 70.9691 961.307 69.314C959.652 67.5928 957.533 66.2687 954.951 65.3419C952.37 64.4151 949.357 63.9516 945.915 63.9516C936.647 63.8854 930.059 67.0632 926.153 73.4848C922.314 79.9065 920.394 88.579 920.394 99.5024C920.394 111.948 922.711 121.25 927.345 127.407C932.045 133.497 939.361 136.576 949.291 136.642C951.608 136.642 954.124 135.98 956.838 134.656C959.619 133.266 961.969 131.313 963.889 128.797C965.875 126.215 966.835 123.137 966.769 119.562H989.112C989.377 127.175 987.556 133.729 983.65 139.224C979.811 144.719 974.713 148.956 968.358 151.935C962.002 154.914 955.183 156.403 947.901 156.403Z" fill="black"/>
<path d="M1000.27 154.517V0H1023.5V46.1763L1021.91 77.0597L1022.81 85.7985L1021.62 78.7479C1022.41 72.7897 1023.93 67.1625 1026.18 61.8663C1028.5 56.5039 1031.98 52.1676 1036.61 48.8575C1041.31 45.5473 1047.6 43.8923 1055.48 43.8923C1065.74 43.8923 1073.65 47.1031 1079.21 53.5247C1084.84 59.8802 1087.65 69.612 1087.65 82.7201V154.517H1064.12V90.863C1064.12 81.6608 1062.76 75.0737 1060.05 71.1015C1057.33 67.1294 1052.47 65.1433 1045.45 65.1433C1040.62 65.1433 1036.25 66.7653 1032.34 70.0092C1028.5 73.1869 1025.59 76.7287 1023.6 80.6347V154.517H1000.27Z" fill="black"/>
<path d="M1159.13 155.708C1151.98 155.708 1146.29 154.517 1142.05 152.133C1137.82 149.75 1134.71 146.97 1132.72 143.792C1130.73 140.548 1129.48 137.701 1128.95 135.252L1121 135.649L1130.24 127.804C1130.7 129.459 1131.73 131.081 1133.31 132.67C1134.9 134.193 1137.22 135.45 1140.27 136.443C1143.31 137.37 1147.05 137.834 1151.49 137.834C1158.9 137.834 1164.99 134.954 1169.76 129.194C1174.59 123.435 1177.01 113.802 1177.01 100.297C1177.01 88.6452 1174.76 79.7078 1170.26 73.4848C1165.75 67.1956 1159.99 64.0509 1152.98 64.0509C1148.01 64.0509 1143.91 64.7461 1140.66 66.1363C1137.49 67.5266 1135.07 69.1485 1133.41 71.0022C1131.76 72.8559 1130.7 74.511 1130.24 75.9674V68.5196C1130.37 66.3349 1130.93 63.8854 1131.92 61.1711C1132.98 58.3906 1134.67 55.7094 1136.99 53.1275C1139.37 50.4794 1142.48 48.3278 1146.32 46.6728C1150.23 44.9515 1155.06 44.0909 1160.82 44.0909C1169.56 44.0909 1176.91 46.4411 1182.87 51.1415C1188.83 55.8418 1193.33 62.2966 1196.37 70.5057C1199.48 78.6486 1201.04 87.917 1201.04 98.3108C1201.04 107.91 1199.85 116.318 1197.47 123.534C1195.15 130.684 1191.97 136.642 1187.93 141.409C1183.96 146.175 1179.49 149.75 1174.53 152.133C1169.56 154.517 1164.43 155.708 1159.13 155.708ZM1106.9 194.536V46.1763H1129.94L1130.24 61.0718V128.698L1128.95 135.252L1130.24 154.616V194.536H1106.9Z" fill="black"/>
<path d="M1243.16 155.708C1236.54 155.708 1230.68 154.484 1225.58 152.034C1220.48 149.518 1216.48 146.043 1213.56 141.607C1210.72 137.172 1209.29 132.041 1209.29 126.215C1209.29 119.793 1210.45 114.497 1212.77 110.327C1215.09 106.156 1218.43 102.846 1222.8 100.396C1227.24 97.8804 1232.43 95.9606 1238.39 94.6365C1242.63 93.7097 1247.1 92.9484 1251.8 92.3525C1256.56 91.7567 1260.97 91.2933 1265 90.9623C1269.04 90.5651 1272.15 90.3003 1274.34 90.1678V85.7985C1274.34 78.45 1272.85 72.9552 1269.87 69.314C1266.96 65.6067 1261.99 63.753 1254.97 63.753C1250.47 63.753 1246.7 64.3158 1243.65 65.4412C1240.61 66.5004 1238.29 68.5527 1236.7 71.598C1235.18 74.5772 1234.35 78.9465 1234.22 84.7061H1212.87C1212.14 75.3716 1213.47 67.7252 1216.84 61.767C1220.28 55.7425 1225.38 51.307 1232.13 48.4603C1238.95 45.5473 1247 44.0909 1256.27 44.0909C1261.76 44.0909 1266.92 44.7198 1271.76 45.9777C1276.66 47.1693 1280.99 49.2547 1284.77 52.2338C1288.54 55.1467 1291.52 59.152 1293.7 64.2496C1295.89 69.3472 1296.98 75.8019 1296.98 83.6138V154.517H1274.04L1274.34 130.187C1273.08 137.536 1269.9 143.626 1264.81 148.459C1259.71 153.292 1252.49 155.708 1243.16 155.708ZM1249.41 138.032C1252.86 138.032 1256.33 137.436 1259.84 136.245C1263.42 135.053 1266.53 133.332 1269.18 131.081C1271.89 128.83 1273.61 126.182 1274.34 123.137V103.276C1271.69 103.541 1268.55 104.004 1264.91 104.666C1261.33 105.328 1258.25 105.924 1255.67 106.454C1248.25 107.976 1242.89 109.996 1239.58 112.511C1236.34 114.961 1234.72 118.734 1234.72 123.832C1234.72 126.745 1235.38 129.294 1236.7 131.478C1238.09 133.597 1239.91 135.219 1242.16 136.344C1244.42 137.47 1246.83 138.032 1249.41 138.032Z" fill="black"/>
<path d="M1351.75 155.708C1342.42 155.708 1334.61 153.292 1328.32 148.459C1322.03 143.626 1317.29 137.006 1314.12 128.598C1310.94 120.124 1309.35 110.492 1309.35 99.701C1309.35 87.4535 1311.4 77.2253 1315.51 69.0161C1319.68 60.7408 1325.04 54.5178 1331.59 50.347C1338.15 46.1763 1345.13 44.0909 1352.55 44.0909C1359.76 44.0909 1365.42 45.2825 1369.53 47.6658C1373.63 50.0491 1376.64 52.8296 1378.56 56.0073C1380.48 59.1851 1381.71 62.0318 1382.24 64.5475L1389.09 65.4412L1380.95 73.882C1380.42 72.227 1379.36 70.6381 1377.77 69.1154C1376.25 67.5266 1374.03 66.2356 1371.12 65.2426C1368.27 64.2496 1364.56 63.753 1359.99 63.753C1352.25 63.753 1345.86 66.5997 1340.83 72.2932C1335.8 77.9866 1333.28 87.288 1333.28 100.198C1333.28 111.783 1335.57 120.753 1340.13 127.109C1344.77 133.464 1350.79 136.642 1358.21 136.642C1363.24 136.642 1367.31 135.814 1370.42 134.159C1373.6 132.504 1376.05 130.618 1377.77 128.499C1379.49 126.314 1380.55 124.527 1380.95 123.137L1381.94 126.513L1380.95 130.088C1380.62 132.206 1379.95 134.722 1378.96 137.635C1377.97 140.482 1376.38 143.295 1374.2 146.076C1372.08 148.856 1369.2 151.173 1365.56 153.027C1361.91 154.815 1357.31 155.708 1351.75 155.708ZM1381.05 154.517L1380.95 0H1404.28V154.517H1381.05Z" fill="black"/>
</svg>
