<svg width="121" height="94" viewBox="0 0 121 94" fill="none" xmlns="http://www.w3.org/2000/svg">
<path d="M44.2888 41.916C43.8349 42.6229 43.3603 43.1427 42.8652 43.4754C42.4113 43.7665 41.7717 43.912 40.9464 43.912C40.1212 43.912 39.2753 43.7041 38.4087 43.2883C37.5422 42.8724 36.5725 42.4358 35.4997 41.9784C34.4268 41.4794 33.1889 41.0219 31.786 40.6061C30.4243 40.1903 28.8356 39.9823 27.02 39.9823C24.2554 39.9823 22.1097 40.5645 20.583 41.7289C19.0562 42.8516 18.2928 44.3486 18.2928 46.2199C18.2928 47.509 18.7261 48.5902 19.5926 49.4635C20.4592 50.3367 21.5939 51.106 22.9969 51.7714C24.4411 52.3951 26.071 52.9981 27.8866 53.5802C29.7022 54.1208 31.559 54.7238 33.4571 55.3891C35.3965 56.0545 37.274 56.8238 39.0896 57.697C40.9052 58.5703 42.5144 59.6723 43.9174 61.003C45.3616 62.2921 46.517 63.8722 47.3835 65.7435C48.25 67.5732 48.6833 69.7979 48.6833 72.4177C48.6833 75.5365 48.1056 78.4266 46.9502 81.0879C45.8361 83.7077 44.1856 85.974 41.9986 87.8869C39.8117 89.7997 37.0883 91.2968 33.8285 92.3779C30.5687 93.4591 26.8137 93.9997 22.5636 93.9997C20.3766 93.9997 18.2103 93.7918 16.0646 93.3759C13.9189 93.0017 11.8764 92.4611 9.93701 91.7542C7.99764 91.0057 6.18205 90.1532 4.49025 89.1968C2.79845 88.2403 1.3336 87.2007 0.0957031 86.078L4.05698 79.6533C4.51088 78.9048 5.06794 78.3226 5.72815 77.9068C6.42963 77.4909 7.31679 77.283 8.38964 77.283C9.42122 77.283 10.3703 77.5533 11.2368 78.0939C12.1033 78.5929 13.073 79.1543 14.1459 79.778C15.2187 80.3602 16.4773 80.9216 17.9215 81.4622C19.407 81.9612 21.2432 82.2107 23.4301 82.2107C25.0807 82.2107 26.5043 82.0236 27.7009 81.6493C28.8975 81.2751 29.8672 80.7761 30.61 80.1523C31.3527 79.487 31.8891 78.7592 32.2192 77.9691C32.5906 77.1375 32.7763 76.285 32.7763 75.4117C32.7763 73.9979 32.3224 72.8543 31.4146 71.9811C30.5481 71.0662 29.3927 70.2761 27.9485 69.6108C26.5455 68.9455 24.9156 68.3425 23.0588 67.8019C21.2019 67.2613 19.3038 66.6584 17.3644 65.993C15.4663 65.3277 13.5888 64.5376 11.732 63.6227C9.91638 62.7079 8.28648 61.5643 6.84226 60.1921C5.43931 58.7782 4.28393 57.0525 3.37614 55.0149C2.50961 52.9773 2.07634 50.503 2.07634 47.5922C2.07634 44.9308 2.59214 42.415 3.62372 40.0447C4.6553 37.6329 6.20268 35.5121 8.26585 33.6824C10.329 31.8527 12.8873 30.3973 15.9408 29.3161C19.0356 28.2349 22.6049 27.6943 26.6487 27.6943C31.1876 27.6943 35.314 28.4428 39.0277 29.9399C42.7414 31.4369 45.7949 33.3913 48.1881 35.8032L44.2888 41.916Z" fill="white"/>
<path d="M76.46 0V52.7698H79.3072C80.38 52.7698 81.2259 52.6243 81.8449 52.3332C82.4638 52.0005 83.0828 51.4184 83.7017 50.5867L97.8138 31.6245C98.5152 30.6681 99.2993 29.9403 100.166 29.4413C101.074 28.9423 102.208 28.6928 103.57 28.6928H119.168L100.847 52.1461C99.4024 54.1005 97.7312 55.6391 95.8331 56.7619C96.7822 57.4272 97.6075 58.1965 98.3089 59.0698C99.0104 59.943 99.6913 60.9203 100.351 62.0014L120.096 93.0022H104.746C103.426 93.0022 102.291 92.7942 101.342 92.3784C100.393 91.921 99.6087 91.1309 98.9898 90.0081L84.6301 66.3677C84.0524 65.3697 83.4541 64.7252 82.8352 64.4341C82.2162 64.143 81.2878 63.9975 80.0499 63.9975H76.46V93.0022H59.377V0H76.46Z" fill="white"/>
</svg>
